<?xml version="1.0" encoding="utf-8"?>
<!-- Generator: Adobe Illustrator 28.0.0, SVG Export Plug-In . SVG Version: 6.00 Build 0)  -->
<svg version="1.1" id="Layer_1" xmlns="http://www.w3.org/2000/svg" xmlns:xlink="http://www.w3.org/1999/xlink" x="0px" y="0px"
	 viewBox="0 0 578.5 549.3" style="enable-background:new 0 0 578.5 549.3;" xml:space="preserve">
<style type="text/css">
	.st0{font-family:'Cocogoose';}
	.st1{font-size:93.4631px;}
</style>
<path d="M236.8,3.9l-43.2,9.7c-1.4,0.3-2.5,1.6-2.5,3.1v233.1c0,1.1,1,1.9,2.1,1.7l37.2-8.5c1-0.2,1.7-1.1,1.7-2.2v-84.5
	c0-1.1,0.7-2,1.8-2.3l49.2-11c1.3-0.3,2.2-1.4,2.2-2.7V48.1c0-0.5-0.2-0.9-0.6-1.3L239.4,4.6C238.7,4,237.7,3.7,236.8,3.9z
	 M243.5,104.7l-9.6,2c-0.9,0.2-1.7-0.5-1.7-1.3V53.5c0-0.6,0.4-1.2,1.1-1.3l9.6-2.1c0.9-0.2,1.7,0.5,1.7,1.3v51.9
	C244.6,104,244.2,104.5,243.5,104.7z"/>
<path d="M369.4,428.3c-25.6,46-74.7,77-131,77c-82.7,0-150.8-69-149.9-151.7c0.9-82,67.7-148.1,149.9-148.1
	c18.1,0,35.4,3.2,51.5,9.1c3.1,1.1,6.5,1.4,9.8,0.7l47.2-10.3c2.5-0.6,3.2-3.9,1.1-5.4c-11-7.8-22.9-14.4-35.4-19.7
	c-23.5-9.9-48.4-15-74.1-15s-50.6,5-74.1,15c-22.7,9.6-43,23.3-60.5,40.8s-31.2,37.8-40.8,60.5c-9.9,23.5-15,48.4-15,74.1
	s5,50.6,15,74.1c9.6,22.7,23.3,43,40.8,60.5s37.8,31.2,60.5,40.8c23.5,9.9,48.4,15,74.1,15s50.6-5,74.1-15
	c22.7-9.6,43-23.3,60.5-40.8s31.2-37.8,40.8-60.5c1.9-4.4,3.6-8.9,5.1-13.5c0.5-1.6-0.9-3.2-2.5-2.8l-37.6,8.1
	C374.7,422.1,371.3,424.7,369.4,428.3z"/>
<g>
	<path d="M28.7,410.8c1,0.4,1.5,0.1,2.1,0c3.7-0.9,7.4-1.8,11.1-2.8c0.8-0.2,1.6-0.3,2.5-0.2c1.3,0.2,2.3,0.9,2.7,2.1
		s0.2,2.4-0.7,3.4c-0.8,0.8-1.7,1.4-2.8,1.7c-1.8,0.5-3.6,1-5.4,1.4c-3.8,0.9-7.6,2-11.4,3.1c-1.4,0.4-2.7,0.7-4.1,0.9
		c-3,0.4-4.8-1.3-4.4-4.4c0.1-0.7,0.1-1.3-0.1-1.9c-0.8-2.2,0-4,1.7-5.3c1.8-1.5,3.7-2.9,5.6-4.4c2.2-1.9,4.5-3.6,6.7-5.5
		c1.2-1,2.4-2.1,3.3-3.5c0.2-0.3,0.3-0.6,0.2-1c-0.2-0.5-0.7-0.5-1.1-0.5c-1.4,0-2.7,0-4,0.2c-3.7,0.6-7.4,1-11.1,1.8
		c-0.6,0.1-1.1,0.2-1.7,0.1c-2.8-0.5-3.9-3.3-2.1-5.5c0.8-1.1,2-1.6,3.3-1.9c3.1-0.8,6.3-1.1,9.5-1.6c2.3-0.4,4.6-0.5,6.9-0.5
		c1.4,0,2.7,0.3,4,0.7c2.8,0.9,4.4,3.1,4.4,6.1c0,2-0.7,3.8-1.7,5.5c-2.2,3.6-5.4,6.2-8.8,8.5C31.4,408.4,30.1,409.5,28.7,410.8z"/>
	<path d="M42.8,374.2c0,0.6,0,1.2,0,1.8c-0.1,2.2-1.1,3.6-3.4,4.1c-1.3,0.3-2.7,0.4-4,0.6c-6,1-12.1,2-18.1,2.9
		c-5.2,0.8-7.6-1.2-8-6.5c-0.3-4.1,0.7-7.8,3-11.1c2.2-3.2,5-5.7,8.3-7.6c2.6-1.5,5.4-2,8.4-1.6c7.4,0.9,11.5,4.7,13.4,13.1
		C42.8,371.3,42.9,372.8,42.8,374.2z M35.3,373.3c0.3-1.9-0.2-3.4-0.9-4.9c-1.8-4.1-6.5-5.7-10.5-3.5c-2.3,1.3-4.3,3.1-5.7,5.4
		c-1.1,1.7-1.8,3.5-1.5,5.4c0.5,0.5,0.9,0.5,1.3,0.4C23.8,375.2,29.5,374.3,35.3,373.3z"/>
	<path d="M48.3,294c-0.2-1.9,0.3-3.4,1.2-4.9c1.1-1.8,1.2-3.6,0.4-5.6c-0.5-1.2-1.4-2-2.7-2.3s-2.7-0.4-3.9,0
		c-0.6,0.8-0.2,1.4-0.1,2.1c0.4,2.4,0.1,4.7-1.1,6.9c-1.3,2.4-3.4,3.9-6.2,4.1c-4.3,0.4-8.4-0.6-12-2.9c-2.7-1.7-4.1-4.2-4.2-7.4
		c-0.1-2.4,0.4-4.6,1.4-6.8c1.4-3.3,6.1-6,9.7-5.2s7.4,1.2,11.1,1.5c2.9,0.2,5.6,1.3,8.2,2.7c5.1,2.7,7.3,10.1,5.7,14
		c-0.4,0.9-0.8,1.7-1.5,2.5C52.5,294.6,51,295,48.3,294z M33.5,287c2.4,0.1,3.2-1.2,2.1-3.3c-0.1-0.2-0.2-0.5-0.4-0.7
		c-1.4-1.7-3.2-2.8-5.2-3.5c-0.6-0.2-1.1-0.2-1.6,0.2c-1.8,1.3-1.6,4.9,0.3,5.9C30.2,286.5,31.8,286.9,33.5,287z"/>
	<path d="M54.9,446.4c0.1-2.3-0.3-4.6-1.5-6.6c-1.3-2.3-3.2-2.4-4.9-0.4c-1.5,1.8-1.6,4.2-0.3,6.1c0.8,1.2,1.8,2.4,2.4,3.7
		c1,2.1,1.1,4.3,0.5,6.6c-1.1,3.5-3.7,5.2-7,6c-4.5,1.1-10.4-0.3-13.3-6.4c-0.7-1.4-0.9-3-0.6-4.5c0.2-1.5,1.2-2.4,2.6-2.9
		c1.2-0.4,2.6,0.3,3.5,1.5c0.6,0.7,0.8,1.6,1.1,2.5c0.8,2,2.4,3,4.4,2.8c2.2-0.1,2.9-1.4,1.8-3.3c-0.5-0.9-1.1-1.7-1.7-2.6
		c-4.5-7-0.3-16.7,7.9-18.3c2.9-0.5,5.4,0.1,7.5,2.1c0.9,0.8,1.7,1.7,2.3,2.8c2,3.5,2.9,7.3,2.7,11.3c-0.1,1.6-0.6,3-1.8,4.2
		c-1.9,1.9-4.7,1.1-5.4-1.5C54.8,448.5,54.9,447.5,54.9,446.4z"/>
	<path d="M42.2,346.7c0,2.1-0.1,3.5-1,4.7c-1.7,2.1-4.5,1.7-5.6-0.7c-0.3-0.7-0.4-1.5-0.5-2.3c-0.2-2.2-0.8-4.3-1.9-6.3
		c-0.7-1.3-1.4-1.7-2.6-1.5c-1.3,0.2-2.3,0.9-2.7,2.2c-0.2,0.8-0.2,1.7-0.2,2.5c0,2.1-0.1,4.1-0.7,6.1c-1,3.5-3.3,5.6-7,6
		c-3,0.4-5.9,0.2-8.7-1.1c-4-1.8-6.1-5.3-6-9.7c0.1-2.5,0.8-4.8,2.3-6.9c1.1-1.5,2.5-2.6,4.4-2.7c1.5,0,2.7,0.6,3.3,1.9
		c0.7,1.3,0.4,2.6-0.5,3.8c-0.4,0.4-0.8,0.8-1.2,1.3c-0.9,1-1.1,2.2-1,3.4c0,0.6,0.2,1.1,0.7,1.6c1.1,1.1,4.5,1.7,5.8,0.9
		c0.6-0.3,0.8-0.8,0.9-1.4c0.1-0.9,0.2-1.8,0.3-2.7c0.1-1,0-2.1,0.1-3.1c0.5-6.5,7.5-11.3,13.7-9.3c1.4,0.4,2.6,1.2,3.5,2.3
		C40.6,339.2,41.8,343.1,42.2,346.7z"/>
	<path d="M63.4,233c-0.2-1-0.8-1.3-1.3-1.7c-2.3-1.8-4.6-3.6-6.9-5.3c-0.9-0.7-1.6-1.5-2.3-2.3c-1-1.3-1.1-2.8-0.3-4
		c0.8-1.3,2.1-1.4,3.4-1.3c1,0.1,1.9,0.5,2.6,1.1c2.2,1.6,4.3,3.3,6.5,4.9c0.6,0.5,1.2,1,1.9,1.2c0.7,0,1.1-0.4,1.6-0.6
		c2-0.8,4,0,4.3,2.2s1.4,3.3,3.1,4.2c0.9,0.5,1.7,1.2,2.5,1.8c0.7,0.5,1.1,1.2,1.4,2.1c0.8,2.8-1.3,4.9-4.1,4.3
		c-1-0.2-1.7-0.8-2.6-1.3c-1-0.6-1.8-1.5-3.1-1.5c-1.1,0.7-1.5,1.9-2.2,2.8c-0.9,1.2-1.7,2.5-2.6,3.6c-2.6,3.1-5.7,3.7-9.4,2.1
		c-0.9-0.4-1.8-1-2.7-1.5c-2.9-2-5.8-4.1-8.7-6.1c-0.9-0.6-1.6-1.3-2-2.3c-1.1-2.3,0.2-4.7,2.8-4.8c1.2-0.1,2.1,0.4,3.1,1
		c2.3,1.6,4.6,3.1,6.8,4.7c0.8,0.5,1.6,1.1,2.4,1.6c0.6,0.4,1.2,0.7,2.1,0.4C61.3,236.8,62.4,234.9,63.4,233z"/>
	<path d="M55.7,261.5c-0.8,0.4-0.9,1.3-1.2,2.1c-0.6,1.4-1.3,2.7-2.1,3.9c-1.4,1.9-3.3,2.6-5.5,2.7c-2.4,0-4.7-0.6-6.9-1.7
		c-2.9-1.5-5.8-3.1-8.7-4.7c-0.6-0.3-1.2-0.8-1.6-1.4c-0.9-1.1-1.2-2.3-0.6-3.6c0.6-1.3,1.6-2,3-2c1.2,0,2.3,0.4,3.3,0.9
		c2.8,1.5,5.4,3.2,8.4,4.4c1,0.4,1.9,0.8,3.1,0.3c0.9-1.3,1.6-2.8,1.8-4.5c-0.6-0.9-1.5-1.1-2.3-1.5c-2.1-1-4.2-1.9-6.3-3
		c-0.9-0.5-1.9-1.1-2.8-1.8c-0.7-0.5-1.3-1.1-1.6-1.9c-0.6-1.3-0.7-2.6,0.3-3.8s2.3-1.4,3.7-1c0.7,0.2,1.4,0.6,2.1,1
		c2.8,1.8,5.8,3.1,8.8,4.4c0.8,0.4,1.7,0.6,2.6,0.7c1.3,0.1,2.5,0.6,3.3,1.7c0.6,0.8,1.4,1.3,2.3,1.7c1.5,0.8,3,1.5,4.4,2.4
		c1.7,1.1,2.3,2.9,1.6,4.5c-0.7,1.5-2.4,2.2-4.3,1.8c-1-0.2-1.9-0.7-2.9-1.1C57,261.7,56.5,261.3,55.7,261.5z"/>
	<path d="M28,304.7c0.2,0.9,0.9,1.6,1.5,2.3c2.4,2.9,4.9,5.8,6.6,9.2c0.4,0.8,0.7,1.5,0.9,2.3c0.3,1.8-0.4,3.4-1.8,4.1
		c-1.5,0.7-3.1,0.3-4.3-1.2c-0.3-0.3-0.6-0.7-0.8-1.1c-1.5-3-3.6-5.6-5.8-8.2c-2-2.4-4-4.9-5.7-7.6c-0.4-0.7-0.8-1.5-1.1-2.3
		c-0.8-2.9,0.7-5.4,3.7-5.8c1.2-0.2,2.4-0.2,3.7-0.1c5.4,0.4,10.7,1.1,16,2.5c1.4,0.4,2.7,0.9,4,1.5c0.8,0.4,1.5,0.8,2,1.5
		c1,1.2,1.2,2.6,0.6,3.8c-0.7,1.3-1.9,1.9-3.4,1.8c-0.9,0-1.8-0.3-2.6-0.6c-3.9-1.5-8.1-2.1-12.2-2.6
		C28.9,304.2,28.4,304.2,28,304.7z"/>
	<path d="M26.7,432.7c-1.8,0-3.2-0.9-3.6-2.3c-0.5-1.5,0.2-3.2,1.7-4.2c0.8-0.5,1.6-0.7,2.5-1c4.9-1.5,10-2.6,14.9-4
		c1.7-0.5,3.3-1,5-1.6c0.8-0.3,1.6-0.5,2.5-0.4c2.6,0.2,4,2.8,2.6,5c-0.6,1-1.6,1.7-2.7,2.2c-2.2,1-4.5,1.7-6.8,2.2
		c-4.6,1.1-9.1,2.3-13.6,3.6C28.3,432.5,27.5,432.7,26.7,432.7z"/>
	<path d="M17.4,431.1c0,1.6-1,2.7-2.6,2.8c-1.6,0.1-3-1.2-3-2.6c0-1.5,1.3-2.8,2.8-2.8S17.3,429.7,17.4,431.1z"/>
</g>
<text transform="matrix(1 -0.2309 0 1 173.3725 346.211)" class="st0 st1">CHIRO</text>
<text transform="matrix(1 -0.2309 0 1 173.3725 438.211)" class="st0 st1">HERENT</text>
</svg>
