<?xml version="1.0" encoding="utf-8"?>
<!-- Generator: Adobe Illustrator 26.5.0, SVG Export Plug-In . SVG Version: 6.00 Build 0)  -->
<svg version="1.1" xmlns="http://www.w3.org/2000/svg" xmlns:xlink="http://www.w3.org/1999/xlink" x="0px" y="0px"
	 viewBox="0 0 1358.5 538" style="enable-background:new 0 0 1358.5 538;" xml:space="preserve">
<style type="text/css">
	.st0{display:none;}
	.st1{display:inline;}
</style>
<g id="svg5" xmlns:svg="http://www.w3.org/2000/svg" xmlns:inkscape="http://www.inkscape.org/namespaces/inkscape" xmlns:sodipodi="http://sodipodi.sourceforge.net/DTD/sodipodi-0.dtd">
	
		<sodipodi:namedview  bordercolor="#666666" borderopacity="1.0" id="namedview7" inkscape:current-layer="layer1" inkscape:cx="428.09126" inkscape:cy="502.54191" inkscape:document-units="mm" inkscape:pagecheckerboard="0" inkscape:pageopacity="0.0" inkscape:pageshadow="2" inkscape:window-height="1334" inkscape:window-maximized="1" inkscape:window-width="2560" inkscape:window-x="-11" inkscape:window-y="-11" inkscape:zoom="0.8596298" pagecolor="#ffffff" showgrid="false">
		</sodipodi:namedview>
	<path d="M323.6,416.3c-1.9,1.2-3.3,2.9-4.7,5.4c-7.1,12.2-14.2,21.7-23.3,31.1c-22.7,23.5-53,39-85.3,43.7
		c-8,1.1-10.7,1.3-21.1,1.3c-9.8,0-11.7-0.1-18.8-1c-29.6-3.7-57.7-16.5-80.3-36.7c-4-3.6-11.4-11.2-14.4-14.8
		c-20.1-23.9-31.4-50.5-34.8-81.7c-0.6-4.7-0.8-18.8-0.4-24c1.1-16.9,4.7-32.2,11-47.4c12.5-30.2,35.2-56,63.8-72.8
		c6.6-3.7,16.6-8.3,23.5-10.8c1.1-0.4,2.3-0.8,2.5-0.9c0.4-0.1,0.4,33.2,0.4,50.7c0,2.7,0,5.1,0,7.2h41c0.1-2.6,0.1-7.1,0.1-15.4
		v-50l1.9-0.2c2.4-0.2,11.3,0,16.8,0.5c11.8,1,24.3,3.6,35.1,7.4c4.6,1.6,6.4,2.5,10.1,2.3v0h60.1l-8.4-13.3c0-1.9-0.4-2.3-4.7-5.2
		c-24.1-16.1-51.1-26.4-79.6-30.2c-8-1.1-12.5-1.4-22.2-1.5l-9.3-0.1v-4c0-4.3,0.1-4.8,1.2-5.6c0.4-0.3,9.5-2.4,25.7-6
		c24.5-5.4,25.2-5.6,25.8-6.3l0.7-0.7V90.8V44.3l-0.5-1c-0.7-1.2-45-42.6-46.2-43.1c-0.4-0.2-1.1-0.3-1.4-0.3
		c-0.5,0-41.5,9.2-44.3,10c-0.5,0.2-1,0.5-1.3,0.9c-0.4,0.6-0.4,4.9-0.5,77.9l-0.1,77.3l-4.5,1.3c-5.3,1.6-9.8,3.1-14.7,4.9
		C61.4,195.3,16,248.9,3.6,312.6c-11,56,3.7,113.6,40,157.2c33.9,40.7,82.4,65.1,135,68c2,0.1,6.2,0.2,9.5,0.3
		c41.3,0.3,81.2-12.9,114.2-37.7c28.1-21.2,49.9-49.7,62.6-82.2c0.3-0.7,0.5-1.3,0.7-1.9H323.6z M182.9,75.5l0.1-26.2l0.6-0.6
		c0.5-0.5,1.4-0.8,5.5-1.7c2.7-0.6,5.1-1,5.3-0.9c0.2,0.1,0.5,0.4,0.6,0.6c0.1,0.3,0.2,10,0.2,26.3c0,27.9,0,26.8-1.3,27.5
		c-0.3,0.2-2.6,0.8-5,1.3c-2.5,0.5-4.5,0.9-4.7,0.9c-0.2,0-0.6-0.2-0.9-0.5C182.8,101.7,182.8,101.4,182.9,75.5z"/>
</g>
<g id="Layer_3" class="st0">
	<path class="st1" d="M238.9,411.7c-0.7-0.7-0.8-8.1-0.8-73.5c0-70.2,0-72.7,1-74.2c0.6-1,1.7-1.9,2.5-2.3c0.8-0.4,8.5-2.1,17-4.2
		L274,254l1.4,1.1l1.4,1.1l0.1,25c0.1,13.7,0.2,25,0.4,25c0.4,0,48.7-11.1,49.7-11.4c0.8-0.2,1-1.9,1-24.9c0-26.9,0-26.9,3.1-28.5
		c0.8-0.4,8.6-2.4,17.3-4.3c14.5-3.3,16-3.6,17.2-2.9l1.3,0.7l0.1,72.5c0.1,53.7,0,72.9-0.5,74c-0.4,0.8-1.3,1.8-2.1,2.3
		c-1.2,0.6-22.5,5.7-32.6,7.9c-1.3,0.2-1.9,0.1-2.7-0.7c-1.1-1.1-1.1-1.4-1.1-30.7c0-16.3-0.1-29.7-0.4-29.7
		c-0.2,0-11.7,2.5-25.4,5.7l-25,5.7v29.5c0,33.2,0.1,31.9-3.8,33.4c-2.3,0.8-31.7,7.7-33,7.7C240.1,412.6,239.3,412.1,238.9,411.7
		L238.9,411.7z"/>
	<path class="st1" d="M401.3,373.7c-0.7-1.1-0.8-8.8-0.8-73c0-49.8,0.1-72.3,0.6-73.4c0.4-1,1.1-2,1.8-2.4
		c1.2-0.8,102.2-24.3,104.6-24.3c0.7,0,1.7,0.5,2.3,1.2c0.8,1.1,1,2.5,1,15c0,12.7-0.1,13.9-1.1,15.5c-0.6,1-1.5,1.9-2.1,2.3
		c-0.6,0.4-15.6,3.9-33.2,8c-17.7,4-32.8,7.5-33.4,7.6l-1.2,0.2v12.7c0,7,0.1,12.7,0.2,12.7c0.1,0,11.6-2.6,25.5-5.8
		c13.8-3.2,26.1-5.8,27-5.8c1.2,0,1.9,0.4,2.4,1.1c0.4,0.6,0.6,5.7,0.6,12.7c0,12.7-0.2,14.1-3,15.2c-1.1,0.5-51.2,12.3-52.2,12.3
		c-0.2,0-0.4,6-0.4,13.2s0.1,13.2,0.2,13.2c0.1,0,15.7-3.6,34.7-8s34.9-8,35.5-8c0.5,0,1.3,0.5,1.8,1c0.7,0.8,0.8,2.6,0.8,15
		c0,15.2-0.4,17-3.1,18.3c-1.4,0.7-104.9,24.5-106.5,24.5C402.7,374.9,401.8,374.4,401.3,373.7L401.3,373.7z"/>
	<path class="st1" d="M662.3,311.9c-0.1-0.8-6.8-12.1-14.7-25.1l-14.3-23.7l4.9-4.8c6.6-6.3,10.6-11.9,14.3-19.7
		c4.4-9.1,5.4-12.7,5.7-22c0.2-6.7,0.1-8.3-0.8-12.1c-1.8-7.3-4.9-12.7-9.9-17.7c-8.1-8.1-19.3-12-31.6-10.8
		c-5,0.5-74,16.2-75.2,17.2c-0.5,0.4-1.1,1-1.4,1.4c-0.6,0.6-0.7,17.3-0.7,74.2c0,69.4,0.1,73.5,1,74c0.5,0.2,1.2,0.5,1.4,0.6
		c0.4,0,8-1.7,17.2-3.8c13.1-3,16.8-4,17.9-5l1.3-1.2v-24.3v-24.3l8.1-1.8c4.4-1.1,8.2-1.9,8.5-1.9c0.4-0.1,25.7,41.3,25.7,42
		c0,0.2,0.6,0.6,1.3,1c1.1,0.5,4.3,0,20.1-3.7C661.7,315.5,662.9,315,662.3,311.9z M611.1,241c-4.3,4.3-7.5,5.6-22.4,8.9
		c-5.2,1.2-9.9,2.3-10.4,2.5c-1,0.4-1-0.7-0.8-18.6l0.1-18.9l7.6-1.8c16-3.7,20.4-4,24.3-2.3C620,215.5,620.9,231.3,611.1,241z"/>
	<path class="st1" d="M682.4,309.2c-0.7-1.1-0.8-8.8-0.8-73c0-49.8,0.1-72.3,0.6-73.4c0.4-1,1.1-2,1.8-2.4
		c1.2-0.8,102.2-24.3,104.6-24.3c0.7,0,1.7,0.5,2.3,1.2c0.8,1.1,1,2.5,1,15c0,12.7-0.1,13.9-1.1,15.5c-0.6,1-1.5,1.9-2.1,2.3
		c-0.6,0.4-15.6,3.9-33.2,8c-17.7,4-32.8,7.5-33.4,7.6l-1.2,0.2v12.7c0,7,0.1,12.7,0.2,12.7c0.1,0,11.6-2.6,25.5-5.8
		c13.8-3.2,26.1-5.8,27-5.8c1.2,0,1.9,0.4,2.4,1.1c0.4,0.6,0.6,5.7,0.6,12.7c0,12.7-0.2,14.1-3,15.2c-1.1,0.5-51.2,12.3-52.2,12.3
		c-0.2,0-0.4,6-0.4,13.2c0,7.3,0.1,13.2,0.2,13.2c0.1,0,15.7-3.6,34.7-8c18.9-4.4,34.9-8,35.5-8c0.5,0,1.3,0.5,1.8,1
		c0.7,0.8,0.8,2.6,0.8,15c0,15.2-0.4,17-3.1,18.3c-1.4,0.7-104.9,24.5-106.5,24.5C683.8,310.4,682.9,309.8,682.4,309.2L682.4,309.2z
		"/>
	<path class="st1" d="M820.4,277.5c-1.1-1.1-1.1-1.8-1.1-73.3c0-44.7,0.2-72.8,0.5-73.6c0.2-0.7,1.1-1.7,1.8-2.1
		c1.4-1,34.5-8.7,37.2-8.7c1,0,2,0.4,2.5,0.7c0.5,0.4,8.6,11.3,18,24.2c9.4,13,21.1,28.9,25.8,35.5l8.7,11.9l0.2-41.3
		c0.2-45.5,0.1-43.2,3.6-44.7c0.8-0.4,8.2-2.1,16.6-4c13.1-3,15.2-3.3,16.4-2.7l1.4,0.7l0.1,72.8c0.1,40,0,73.3-0.1,73.9
		s-0.8,1.5-1.5,1.9c-0.7,0.5-9.2,2.6-18.8,4.9c-17.3,3.9-17.5,4-18.8,3.1c-0.7-0.5-4.8-5.8-8.9-11.8c-38.4-54.7-46.1-65.4-46.6-65.6
		c-0.4-0.1-0.5,15.8-0.5,44.8v44.9l-1.2,1.2c-1,0.8-4.9,2-17.3,4.9c-8.8,2-16.2,3.7-16.6,3.7C821.7,278.6,821,278.1,820.4,277.5
		L820.4,277.5z"/>
	<path class="st1" d="M1018.6,232.3c-1-0.7-1.1-2.1-1.3-57.5L1017,118l-18.3,4.2c-17.6,4-18.5,4.2-19.8,3.3l-1.3-0.8v-15v-15
		l1.5-1.4c1.4-1.4,5.5-2.4,57.5-14.4c32-7.4,56.6-12.7,57.2-12.6c0.7,0.1,1.4,0.7,1.7,1.3c0.2,0.6,0.5,6.9,0.5,14.9
		c0,13-0.1,14.1-1.1,15.6c-0.6,1-1.5,1.9-2.3,2.3c-1.1,0.5-35.3,8.5-36.1,8.5c-0.1,0-0.4,25.3-0.4,56.2c0,62.1,0.2,58.7-3.3,60.5
		c-1.7,0.8-30.7,7.7-32.6,7.7C1020,233,1019.2,232.7,1018.6,232.3L1018.6,232.3z"/>
</g>
<g id="Layer_2">
	<path d="M1110.4,222c0,6.3-0.1,12,0,17.7c0.6,46.9,1.3,93.8,1.9,140.8c0,3.5,0,7,0,11.4c-2.6,0.7-5.2,2.1-7.9,2.1
		c-13-0.1-26.1,1.4-38.9-0.9c-23.3-34-44.3-68.8-68.5-101.8c0,33.5,0,66.9,0,101c-4.8,0.6-9.1,1.5-13.5,1.7
		c-7.3,0.3-14.7,0-22.1,0.1c-3.5,0.1-6.3-0.6-8.9-5.4c0-9.3,0-20.1,0-31c-0.1-17.3,0-34.5-0.3-51.8c-0.3-24.2-0.8-48.5-1.2-72.7
		c-0.1-3.8-0.4-7.7,2.9-11.3c14.9,0,30.1,0,46.4,0c22,30.3,41.8,62.8,65.4,93.2c0-30.9,0-61.8,0-93.2
		C1081,219.3,1095.3,218.9,1110.4,222z"/>
	<path class="st0" d="M970.3-7c31.9,1.9,60.6,17.3,77.7,50.7c7.8,15.3,10,31.7,7.1,49c-5.6,33.7-25.6,55.6-56.2,67.9
		c-36.9,14.8-77.2,5.1-103.3-22.5c-16.7-17.7-25.1-39.1-23.1-63.4c2-24.8,13.3-45.7,32.9-61.3C922.8-0.3,943.1-7.1,970.3-7z
		 M964.1,35.1c-23.6-1.5-46.3,18.8-45.6,45.8c0.7,24.9,18.4,44.6,46.2,44.2c25.9-0.4,45.2-18.2,45.1-45.6
		C1009.7,51.2,988.2,34,964.1,35.1z"/>
	<path d="M766.7,391.2c-8.5,2-36.7,2.3-49.9,0.7c-10-17.9-20.2-36.2-30.5-54.7c-6.3,0-12.3,0-18.9,0c-0.2,1.7-0.7,3.8-0.7,5.9
		c-0.1,13.4,0,26.8-0.1,40.3c0,2.8-0.4,5.5-0.7,9.2c-14.8,0.5-28.7,0.2-43.4,0.2c-0.5-2.9-1.3-5.3-1.3-7.6c0-32.9-0.1-65.8,0.1-98.8
		c0.1-17.8,0.8-35.7,1.3-53.5c0.1-2.8,0.3-5.6,0.5-8.8c3-0.2,5.5-0.4,8-0.4c25.2,0,50.5,0.1,75.7-0.1c22.5-0.2,46.9,17.1,52.6,39.8
		c5,19.9,0.7,37.8-14.1,52.6c-3.8,3.8-8.2,7.1-12.5,10.8C743.3,348.2,757,368.6,766.7,391.2z M714.2,278.3c-0.3-1.3-0.7-2.9-1.1-4.4
		c-2-8.5-8.6-15.1-16.9-15.7c-9.4-0.6-19-0.1-28.4-0.1c-1.7,13.8-1.4,35.5,0.7,41.9c7,0,14,0.4,21-0.1c4.9-0.4,10.1-1.4,14.6-3.4
		C710.9,293.3,713.4,286.7,714.2,278.3z"/>
	<path class="st0" d="M824.4,100.4c11.5,20.7,22.9,41.3,34.7,62.6c-2,1-3.7,2.7-5.5,2.8c-14.7,0.2-29.3,0.1-44.4,0.1
		c-10.4-18.4-20.7-36.7-31.2-55.2c-6.1,0-12.1,0-18.8,0c-0.9,5.9-0.3,11.9-0.4,17.8c-0.1,6.1,0,12.1,0,18.2c0,6,0,12,0,18.7
		c-15.3,1.3-30,3.9-45.2,0.7c-0.2-2.7-0.6-4.9-0.6-7c0-49.5,0.1-99.1,0.1-148.6c0-4.1-0.8-8.6,5.7-11.4c4.2,0,9.9,0,15.6,0
		c21.1-0.1,42.2,0.1,63.3-0.2c21.4-0.3,48.2,13.9,54.8,44.4c3,14.2-0.9,27.7-9.5,39.7C838,90,830.9,94.7,824.4,100.4z M759.3,73.9
		c9,0,16.9,0,24.9,0c1.3,0,2.6,0,3.8-0.2c10.6-1.3,17-8.5,17.4-19c0.4-10.1-6.1-19.7-16.7-20.9c-9.7-1.1-19.5-0.5-29.4-0.4
		C759.3,47.4,759.3,60.3,759.3,73.9z"/>
	<path d="M275.7,390.8c0-22-0.2-44.1,0.1-66.1c0.3-25.2,1-50.4,1.7-75.6c0.2-7.3,1.1-14.5,1.7-22.4c7.3-2.3,14.3-1.1,21.1-1.3
		c6.7-0.2,13.3,0,20.8,0c1.3,10.1,0.4,19.7,0.5,29.1c0.1,9.2,0,18.4,0,27.6c7.9,1.5,45.8,1.7,57.1,0.3c1.2-18.5-0.8-37.4,2.8-56.8
		c13.8-0.7,27.7-0.5,41.5-0.2c2.9,6.7,1.5,12.8,1.5,18.7c0,6-1,12-1.1,18.1c-0.3,40-0.4,79.9-0.7,119.9c0,3.4,1.1,7.1-2.8,10.2
		c-12.8,0-26.2,0-40.3,0c-0.7-2.1-2.2-4.4-2.2-6.7c-0.2-8.6-0.9-17.4,0.2-25.9c1.6-11.8,0.5-23.5,1-35.1c-7.8-1.5-44-1.9-57.6-0.5
		c0,2.3,0.1,4.8,0,7.3c-0.5,17.8-1.1,35.7-1.7,53.5c-0.1,2.1-0.7,4.3-1,6.2C309.3,393.4,282.3,393.2,275.7,390.8z"/>
	<path class="st0" d="M544.4,99c-19.9,0-38.3,0.1-57.6,0.2c0,8.6-0.1,15.9-0.1,23.2c0,7.7,0.1,15.4-0.1,23c-0.2,7.2,1.1,14.6-1.5,22
		c-2.5,0.3-4.6,0.6-6.8,0.7c-7.9,0.5-15.9,1-23.8,1.2c-3.7,0.1-7.4-0.6-12.1-1c0.4-55-0.9-109.2,2.3-163.5c1.8-0.7,3.2-1.7,4.7-1.7
		c11.8-0.1,23.7-0.1,35.5,0.1c1,0,2,1.4,3.3,2.3c0,17.9,0,35.7,0,53.5c7,1.9,37.1,2.2,56.5,0.7c0.4-2.1,1.1-4.4,1.2-6.8
		c0.2-12.8,0.1-25.6,0.3-38.4c0-3.4,0.3-6.9,0.6-10.8c14.7-3.8,28.7-2.7,43.8-1.7c-0.1,55.2,0,109.4-0.4,163.2
		c-6.5,3.2-15.4,3.6-42.3,2.5c-3.6-2.6-3.3-6.5-3.3-10.3c0-15.7,0-31.3,0.1-47C544.4,106.8,544.4,103.4,544.4,99z"/>
	<path d="M789.3,392.4c0-29.1,0.1-56.6-0.1-84c0-8.6-1.1-17.2-1-25.7c0.2-18.5,0.8-36.9,1.3-55.4c0-0.9,0.4-1.8,0.7-3.2
		c8.1-0.7,16.3-1.8,24.4-1.9c32.6-0.3,65.2-0.3,97.8-0.3c0.9,0,1.9,0.2,3.7,0.4c0.7,1.6,2.1,3.6,2.1,5.5c0.2,10.2,0.1,20.4,0.1,30.3
		c-3,3.9-6.9,3.7-10.7,3.7c-20.5,0-40.9,0.1-61.4,0.2c-3.2,0-6.4,0-10,0c-1.5,4.8-0.7,9.6-0.8,14.2c-0.1,4.4,0,8.9,0,14.3
		c21.5,0,42.5,0,62.9,0c3.5,7.4,3.6,24.9,0.5,32.9c-20.4,0-41.1,0-62.1,0c-2,5.4-1,10.5-1.2,15.5c-0.2,4.7,0,9.5,0,15.2
		c28.6,0,56.6,0,84.1,0c3.1,6.8,3.6,16.6,2.2,36.8c-2.9,4-7.2,3.3-11.2,3.3c-23,0-46,0-69,0c-13.7,0-27.5,0-41.2-0.2
		C796.9,393.9,793.6,393,789.3,392.4z"/>
	<path d="M464.1,225.4c9-0.5,17.6-1.4,26.1-1.5c31.7-0.2,63.3-0.1,95.6-0.1c1.2,1.5,3.6,3.1,3.7,4.8c0.3,10.7,1.9,21.6-2,33
		c-13.3,0.8-26.7,0.4-40,0.5c-13,0.1-26.1,0-39.6,0c0,9.7,0,18.5,0,28c2.3,0.2,4.7,0.5,7.2,0.5c15.4,0.1,30.7,0,46.1,0.1
		c3.1,0,6.5-1,9.4,2.6c0,9.2,0,19,0,29.8c-5.6,0.6-10.8,1.6-16.1,1.6c-15.3,0.2-30.6,0.1-46.3,0.1c-1.4,5.2-0.7,9.9-0.8,14.6
		c-0.1,4.4,0,8.9,0,13.7c9.3,1.4,18.2,0.5,27.1,0.6c9.3,0.2,18.6,0,27.8,0c8.9,0,17.8,0,27,0c4.1,12.7,1.2,24.9,0.8,36.9
		c-0.5,0.4-0.7,0.7-0.9,0.9c-0.2,0.2-0.5,0.5-0.8,0.5c-40.3,0.1-80.6,0.3-120.9,0.4c-1.6,0-3.1-0.3-4.6-0.4
		C460.3,382.1,461.3,251.8,464.1,225.4z"/>
	<path class="st0" d="M413.7,17.7c-3,9.2-15.5,26.8-23.6,33.5c-2-0.9-4.3-1.9-6.6-2.9c-17.2-7.9-33.6-8-49.5,3.5
		c-8.8,6.4-13.8,15.3-15.9,25.3c-2.6,12.4-1.2,24.7,6.4,35.7c8.8,12.7,21,17.6,35.9,17.4c8.2-0.1,15.6-2.4,22.7-6.4
		c2.1-1.2,4.4-2.3,6.9-3.5c8.3,8.9,14.5,18.9,20.9,28.8c0.9,1.4,0.7,3.6,1,5.4c-9.8,8.2-21,12.6-32.9,15.1
		c-33.5,7.1-62.8-1.1-85.5-27.1c-16.5-18.9-22.9-41.1-18.7-66.4c2.8-17.3,10.1-32.4,21.7-44.8C312,14.7,331.1,4.7,354.1,2.5
		c18.9-1.8,36.6,1.4,53.1,10.7C409.6,14.5,411.7,16.3,413.7,17.7z"/>
	<path d="M1284.8,222.6c0.3,9.1,0.7,18.9,1,28.7c0.4,0.1,0.8,0.1,1.1,0.2c-1.1,2.5-2.3,5.1-3.7,8.3c-14.8,0-29.4,0-44.4,0
		c0,44.7,0,88.4,0,131.9c-4.8,4.2-10.2,2.1-15.1,2.5c-5.1,0.4-10.2,0.4-15.3,0c-4.9-0.3-10.3,1.7-15.2-2.3c-0.2-1.9-0.5-4.1-0.6-6.3
		c-0.7-32.6-1.3-65.1-2-97.7c-0.2-8.9-1.1-17.8-1.7-27.6c-14.2-0.9-28.5,0.1-42.7-0.5c-3.3-1.4-5-3.7-5-7.4c0.1-9.9,0-19.8,0-30.5
		c5.8-0.7,11.4-1.9,17-1.9c39-0.2,78-0.2,117.1-0.2C1278.4,219.9,1281.8,218.9,1284.8,222.6z"/>
	<path class="st0" d="M674,165.6c-14.4,3.7-28.4,1.1-41.6,2.2c-3.6-3.2-3.6-6.7-3.6-10.3c0.1-36.4,0-72.8,0.2-109.2
		c0.1-13.7,0.8-27.3,1.3-41c0.1-1.6,0.3-3.1,0.5-4.5c6.7-2.7,30.7-3.3,42.7-1.3C675.1,9.1,675.6,143.6,674,165.6z"/>
</g>
</svg>
