<?xml version="1.0" encoding="utf-8"?>
<!-- Generator: Adobe Illustrator 27.7.0, SVG Export Plug-In . SVG Version: 6.00 Build 0)  -->
<svg version="1.1" id="Layer_1" xmlns="http://www.w3.org/2000/svg" xmlns:xlink="http://www.w3.org/1999/xlink" x="0px" y="0px"
	 viewBox="0 0 1268.7 545.9" style="enable-background:new 0 0 1268.7 545.9;" xml:space="preserve">
<style type="text/css">
	.st0{display:none;}
	.st1{font-family:'Cocogoose';}
	.st2{font-size:238.4133px;}
</style>
<path d="M324.8,429.6c-31.6,53-95.1,84.7-164,68.5c-47.9-11.2-96.9-60-108.3-107.9C29,292.1,102.7,204.7,196.9,204.7
	c17.7,0,34.6,3.1,50.4,8.7c3.1,1.1,6.4,1.7,9.7,1.7h55.6c4.8,0,6.9-6,3.2-9c-13.7-11.1-28.8-20.2-45.2-27.1
	c-23.4-9.9-48.2-14.9-73.7-14.9s-50.3,5-73.7,14.9c-22.6,9.5-42.8,23.2-60.2,40.6c-17.4,17.4-31,37.6-40.6,60.2
	C12.5,303.2,7.5,328,7.5,353.5s5,50.3,14.9,73.7C32,449.8,45.6,470,63,487.4c17.4,17.4,37.6,31,60.2,40.6
	c23.4,9.9,48.2,14.9,73.7,14.9s50.3-5,73.7-14.9c22.6-9.5,42.8-23.2,60.2-40.6c17.4-17.4,31-37.6,40.6-60.2l0,0
	c1.2-2.9-0.9-6.2-4.1-6.2h-27.2C333.8,421,328,424.3,324.8,429.6z"/>
<path d="M195.4,4.8l-43.2,9.7c-1.4,0.3-2.5,1.6-2.5,3.1v248.1c0,2.7,2.2,4.8,4.8,4.8H186c2.7,0,4.8-2.2,4.8-4.8V157.1
	c0-1.1,0.7-2,1.8-2.3l49.2-11c1.3-0.3,2.2-1.4,2.2-2.7V49c0-0.5-0.2-0.9-0.6-1.3L198,5.5C197.3,4.8,196.3,4.6,195.4,4.8z
	 M202.1,105.5l-9.6,2c-0.9,0.2-1.7-0.5-1.7-1.3V54.4c0-0.6,0.4-1.2,1.1-1.3l9.6-2.1c0.9-0.2,1.7,0.5,1.7,1.3v51.9
	C203.2,104.8,202.7,105.4,202.1,105.5z"/>
<g>
	<path d="M252.5,235.1c0.1-1.4,0.6-2.6,1.5-3.6c0.9-1.1,2.1-1.6,3.6-1.6H293c1.2,0,2.4,0.5,3.7,1.5c1.3,1,1.9,2.2,1.9,3.8v56.6h59.2
		v-56.6c0-1.4,0.5-2.7,1.5-3.7c1-1,2.3-1.6,3.9-1.6h34.8c1.6,0,3,0.4,4.2,1.2c1.2,0.8,1.8,2.1,1.8,3.8v166.8c0,1.7-0.5,3.1-1.5,3.9
		c-1,0.9-2.4,1.3-4,1.3h-35.2c-1.6,0-2.9-0.4-3.9-1.3c-1-0.9-1.5-2.2-1.5-3.9v-67.7h-59.2v67.7c0,1.7-0.5,3-1.6,3.9
		c-1.1,0.9-2.5,1.4-4.4,1.4h-35c-3.3,0-5-1.5-5.1-4.6V235.1z"/>
	<path d="M443,235.3c0-1.7,0.5-3,1.4-4c0.9-1,2.2-1.5,3.9-1.5h118.3c1.7,0,3.1,0.5,4.1,1.5c1,1,1.4,2.4,1.4,4.2V265
		c0,1.3-0.5,2.6-1.4,3.9c-1,1.2-2.3,1.8-4.2,1.8h-77.2v29.6h59.6c1.5,0,2.8,0.4,3.8,1.1c1,0.7,1.5,1.9,1.5,3.6v25.7
		c0,1.1-0.4,2.2-1.3,3.2c-0.9,1-2.1,1.5-3.8,1.5h-59.7V366h80.1c3.6,0,5.4,1.8,5.4,5.5v30c0,0.8-0.3,1.5-1,2.1
		c-0.3,2.2-1.9,3.3-4.9,3.3H448.2c-1.6,0-2.9-0.4-3.8-1.3c-1-0.8-1.4-2.1-1.4-3.9V235.3z"/>
	<path d="M604.1,235.3c0-1.7,0.4-3,1.3-4c0.9-1,2.2-1.5,3.9-1.5h77c8.2,0,15.9,1.5,23,4.6c7.2,3.1,13.4,7.2,18.7,12.5
		c5.3,5.2,9.5,11.4,12.6,18.4s4.6,14.5,4.6,22.5c0,5.4-0.7,10.5-2.2,15.4s-3.5,9.5-6.1,13.7c-2.6,4.3-5.7,8.1-9.4,11.6
		c-3.6,3.5-7.6,6.4-11.9,8.9l30.6,57.7c0.6,1.1,1.3,2.4,2.1,3.9c0.9,1.5,1.3,2.8,1.3,3.9c0,1.3-0.4,2.2-1.3,2.9c-0.8,0.7-2,1-3.4,1
		h-40.9c-1.4,0-2.6-0.4-3.6-1.2c-1.1-0.8-1.8-1.9-2.1-3.2l-29-54.5h-19.3v53.8c0,3.4-1.8,5.1-5.5,5.1h-35.4c-1.6,0-2.9-0.4-3.8-1.3
		c-1-0.8-1.4-2.1-1.4-3.9V235.3z M697.5,288.3c0-2.4-0.4-4.8-1.3-7.2s-2.1-4.6-3.7-6.6c-1.6-2-3.5-3.7-5.7-5
		c-2.2-1.4-4.7-2.2-7.4-2.6c-2.2-0.2-4.3-0.3-6.3-0.4s-4.1-0.2-6.4-0.2h-16.5v43.7h21.9c1.4,0,2.7,0,3.8-0.1
		c1.1-0.1,2.3-0.2,3.7-0.4c2.8-0.3,5.3-1.1,7.5-2.4c2.2-1.3,4.1-2.9,5.6-4.9c1.5-1.9,2.7-4.1,3.5-6.6
		C697.1,293.3,697.5,290.8,697.5,288.3z"/>
	<path d="M771.6,235.3c0-1.7,0.5-3,1.4-4c0.9-1,2.2-1.5,3.9-1.5h118.3c1.7,0,3.1,0.5,4.1,1.5c1,1,1.4,2.4,1.4,4.2V265
		c0,1.3-0.5,2.6-1.4,3.9c-1,1.2-2.3,1.8-4.2,1.8h-77.2v29.6h59.6c1.5,0,2.8,0.4,3.8,1.1c1,0.7,1.5,1.9,1.5,3.6v25.7
		c0,1.1-0.4,2.2-1.3,3.2c-0.9,1-2.1,1.5-3.8,1.5h-59.7V366h80.1c3.6,0,5.4,1.8,5.4,5.5v30c0,0.8-0.3,1.5-1,2.1
		c-0.3,2.2-1.9,3.3-4.9,3.3H776.9c-1.6,0-2.9-0.4-3.8-1.3c-1-0.8-1.4-2.1-1.4-3.9V235.3z"/>
	<path d="M933,235.1c0-1.4,0.4-2.7,1.3-3.7c0.9-1,2.2-1.5,3.9-1.5h39c1.1,0,2.3,0.3,3.5,0.8c1.2,0.6,2.2,1.5,3.1,2.9
		c10.1,16.3,20.1,32.3,30,48.2c9.9,15.8,20,31.9,30.2,48.2v-95.5c0.3-1.4,1-2.5,1.9-3.3c1-0.8,2.1-1.2,3.3-1.2h34
		c1.7,0,3.1,0.5,4.2,1.4c1.1,0.9,1.7,2.2,1.7,3.9v167.1c0,1.6-0.5,2.8-1.4,3.5c-1,0.8-2.3,1.1-3.9,1.1h-38c-1,0-1.9-0.4-2.7-1.1
		c-0.8-0.7-1.6-1.7-2.5-2.9c-10.6-17.5-21-34.8-31.4-51.9c-10.3-17.1-20.8-34.4-31.5-51.9v102.4c0,1.7-0.4,3.1-1.2,3.9
		c-0.8,0.9-2.2,1.3-4.3,1.3h-33.9c-1.8,0-3.2-0.5-4-1.5c-0.8-1-1.3-2.2-1.3-3.6V235.1z"/>
	<path d="M1118.3,235.1c0-1.6,0.5-2.9,1.6-3.8c1.1-0.9,2.4-1.4,4-1.4h128.3c1.4,0,2.7,0.4,3.8,1.3c1.1,0.9,1.7,2.2,1.9,3.9v29.6
		c0,1.4-0.5,2.8-1.5,4.1c-1,1.3-2.4,2-4.2,2H1211v130.5c0,1.4-0.5,2.7-1.5,3.9c-1,1.2-2.4,1.7-4,1.7h-35c-1.3,0-2.6-0.5-3.8-1.6
		c-1.2-1.1-1.8-2.4-1.8-4V270.7h-41c-1.6,0-2.9-0.5-4-1.5c-1.1-1-1.6-2.5-1.6-4.5V235.1z"/>
</g>
<text id="HERENT_in_font_Cocogoose_Regular_00000105410548387931488090000003208768779874535836_" transform="matrix(1 0 0 1 232.8621 406.8637)" class="st0 st1 st2">HERENT</text>
</svg>
