<?xml version="1.0" encoding="UTF-8" standalone="no"?>
<!-- Created with Inkscape (http://www.inkscape.org/) -->

<svg
   width="184.51199mm"
   height="189.79599mm"
   viewBox="0 0 184.51199 189.79599"
   version="1.1"
   id="svg5"
   inkscape:version="1.1.2 (b8e25be833, 2022-02-05)"
   sodipodi:docname="Chiroherent.svg"
   xmlns:inkscape="http://www.inkscape.org/namespaces/inkscape"
   xmlns:sodipodi="http://sodipodi.sourceforge.net/DTD/sodipodi-0.dtd"
   xmlns="http://www.w3.org/2000/svg"
   xmlns:svg="http://www.w3.org/2000/svg">
  <sodipodi:namedview
     id="namedview7"
     pagecolor="#ffffff"
     bordercolor="#666666"
     borderopacity="1.0"
     inkscape:pageshadow="2"
     inkscape:pageopacity="0.0"
     inkscape:pagecheckerboard="0"
     inkscape:document-units="mm"
     showgrid="false"
     inkscape:zoom="0.8596298"
     inkscape:cx="428.09126"
     inkscape:cy="502.54191"
     inkscape:window-width="2560"
     inkscape:window-height="1334"
     inkscape:window-x="-11"
     inkscape:window-y="-11"
     inkscape:window-maximized="1"
     inkscape:current-layer="layer1" />
  <defs
     id="defs2" />
  <g
     inkscape:label="Layer 1"
     inkscape:groupmode="layer"
     id="layer1"
     transform="translate(-13.989334,-13.097164)">
    <path
       style="fill:#000000;stroke-width:0.0854991"
       d="m 77.007438,202.8116 c -18.5397,-1.02242 -35.658907,-9.64241 -47.61303,-23.97447 -12.830603,-15.3829 -18.019855,-35.72037 -14.152215,-55.46474 4.401091,-22.46764 20.409778,-41.36677 41.946725,-49.5204 1.71914,-0.65084 3.32207,-1.181 5.19818,-1.71923 l 1.58173,-0.45379 0.0427,-27.26406 c 0.0404,-25.764248 0.051,-27.276613 0.19214,-27.492069 0.0888,-0.135576 0.27946,-0.262496 0.47025,-0.313092 1.00534,-0.266604 15.44631,-3.512585 15.62707,-3.512585 0.11955,0 0.34116,0.05206 0.49248,0.115691 0.40932,0.172123 16.04725,14.775755 16.28483,15.207755 l 0.19237,0.34979 v 16.40102 16.40102 l -0.23512,0.25579 c -0.22923,0.24937 -0.45683,0.30523 -9.08428,2.22953 -5.72362,1.27662 -8.92465,2.02767 -9.0629,2.12641 -0.38262,0.27327 -0.42489,0.4701 -0.42623,1.98503 l -10e-4,1.42137 3.27034,0.0452 c 3.40711,0.0472 4.99969,0.15617 7.84455,0.53703 10.043107,1.34454 19.594392,4.96317 28.091162,10.64274 1.51877,1.01521 1.66251,1.17421 1.66251,1.83901 0,0.45398 -0.17949,0.81154 -0.5032,1.00246 -0.12295,0.0725 -3.98338,0.9434 -8.57874,1.93531 -10.365265,2.23737 -9.28228,2.15606 -12.737942,0.95635 -3.82389,-1.32755 -8.22119,-2.25479 -12.37974,-2.61047 -1.92764,-0.16488 -5.07113,-0.26102 -5.92081,-0.18109 l -0.66262,0.0623 -0.001,6.21277 c -0.001,6.63097 0.009,6.4658 -0.42624,6.77619 -0.33521,0.23903 -13.46606,3.25332 -13.73185,3.15227 -0.11417,-0.0434 -0.24535,-0.1783 -0.29153,-0.29977 -0.0523,-0.13751 -0.084,-2.67408 -0.084,-6.72235 0,-6.15765 -0.008,-6.49836 -0.14962,-6.44186 -0.0823,0.0328 -0.47666,0.17539 -0.87637,0.31685 -2.44541,0.86546 -5.96483,2.48906 -8.295203,3.8268 -10.104593,5.80047 -18.114773,14.87636 -22.528643,25.52592 -2.223371,5.3644 -3.478017,10.74255 -3.897291,16.70595 -0.129408,1.84068 -0.05349,6.80458 0.129595,8.47353 1.205771,10.99117 5.201335,20.37587 12.26654,28.81136 1.062896,1.26904 3.679339,3.9435 5.096937,5.20996 7.964281,7.11514 17.871685,11.64289 28.342945,12.95292 2.5043,0.31331 3.163,0.34756 6.62618,0.34451 3.65465,-0.004 4.61843,-0.0644 7.43842,-0.47204 11.392037,-1.64684 22.073592,-7.11337 30.103712,-15.40625 3.20367,-3.3085 5.71768,-6.6685 8.20302,-10.96344 0.64723,-1.11846 1.32196,-1.78848 2.27689,-2.2609 0.66921,-0.33107 1.11916,-0.44016 7.41696,-1.79815 4.193,-0.90412 6.79482,-1.42761 6.94558,-1.39746 0.32883,0.0657 0.65541,0.41303 0.72193,0.76765 0.0627,0.3341 -0.12018,0.89735 -1.1198,3.44913 -4.49172,11.46626 -12.16546,21.53393 -22.10139,28.99616 -11.6487,8.74861 -25.710212,13.3972 -40.270062,13.31287 -1.1521,-0.006 -2.65262,-0.0429 -3.33447,-0.0805 z m 3.61281,-153.80615 c 0.85794,-0.18882 1.64973,-0.38945 1.75955,-0.44584 0.45922,-0.2358 0.44158,0.15105 0.44158,-9.68585 0,-5.73986 -0.0308,-9.17303 -0.0831,-9.27084 -0.0457,-0.0854 -0.14438,-0.17882 -0.21924,-0.20755 -0.0749,-0.0287 -0.91235,0.12112 -1.86108,0.33298 -1.43164,0.31971 -1.76146,0.42171 -1.93961,0.59985 l -0.21465,0.21463 -0.0225,9.23085 c -0.0223,9.15217 -0.021,9.2323 0.14962,9.40297 0.0947,0.0947 0.23005,0.17213 0.30085,0.17213 0.0708,0 0.83067,-0.1545 1.68861,-0.34333 z m -20.57827,115.37623 c -0.12084,-0.12084 -0.13432,-1.31433 -0.13404,-11.86299 0,-11.32388 0.006,-11.73774 0.16089,-11.99197 0.0883,-0.14481 0.27092,-0.30565 0.40579,-0.35742 0.13489,-0.0518 1.37476,-0.3513 2.75526,-0.66565 l 2.51002,-0.57153 0.22596,0.16867 0.22595,0.16869 0.0222,4.03062 c 0.0122,2.21684 0.0366,4.03062 0.0541,4.03062 0.0523,0 7.86167,-1.79749 8.02465,-1.84703 0.1397,-0.0425 0.14963,-0.30905 0.14963,-4.01966 0,-4.3403 7.1e-4,-4.34526 0.49306,-4.59365 0.12852,-0.0648 1.38493,-0.37936 2.79201,-0.69898 2.34954,-0.53372 2.57633,-0.57105 2.77872,-0.45745 l 0.22039,0.12369 0.0222,11.7101 c 0.0165,8.68005 -0.004,11.77199 -0.0762,11.94926 -0.0541,0.13153 -0.20724,0.29543 -0.34026,0.36422 -0.18835,0.0974 -3.63267,0.93105 -5.26457,1.27422 -0.21151,0.0445 -0.31171,0.0179 -0.44887,-0.1193 -0.17421,-0.17422 -0.17656,-0.24022 -0.17656,-4.96452 0,-2.63337 -0.0288,-4.78936 -0.0641,-4.79109 -0.0353,-10e-4 -1.88194,0.41189 -4.10371,0.91912 l -4.03957,0.92226 v 4.77082 c 0,5.37013 0.0242,5.15663 -0.6183,5.39564 -0.36762,0.13676 -5.10834,1.24766 -5.32431,1.24766 -0.0637,0 -0.17633,-0.0605 -0.25022,-0.13435 z m 26.24696,-6.12611 c -0.11888,-0.16971 -0.1331,-1.42912 -0.1331,-11.78611 0,-8.04839 0.0281,-11.67674 0.0919,-11.85971 0.0506,-0.14499 0.17946,-0.32099 0.28651,-0.39112 0.20101,-0.13171 16.515902,-3.92166 16.887242,-3.9229 0.11471,0 0.27823,0.0853 0.36337,0.19046 0.14058,0.17361 0.15476,0.39626 0.15447,2.42603 0,2.06212 -0.0132,2.25594 -0.16642,2.5073 -0.0914,0.14983 -0.24424,0.31422 -0.33973,0.36533 -0.0955,0.0511 -2.51183,0.62989 -5.369642,1.2862 -2.85781,0.65631 -5.28259,1.21403 -5.38839,1.2394 l -0.19238,0.0461 v 2.05035 c 0,1.12769 0.0162,2.05034 0.0361,2.05034 0.0199,0 1.86962,-0.42321 4.11061,-0.94048 2.240997,-0.51728 4.204852,-0.9405 4.364112,-0.9405 0.1988,0 0.31733,0.0519 0.37808,0.16539 0.0534,0.0997 0.0885,0.91754 0.0885,2.06016 0,2.05592 -0.0417,2.26607 -0.48964,2.47019 -0.17113,0.078 -8.272352,1.9732 -8.434522,1.9732 -0.0293,0 -0.0532,0.96186 -0.0532,2.13747 0,1.17561 0.0141,2.13747 0.0312,2.13747 0.0172,0 2.5399,-0.57711 5.60603,-1.28248 3.066142,-0.70537 5.643162,-1.28249 5.726702,-1.28249 0.0836,0 0.2156,0.0703 0.29341,0.15636 0.12439,0.13744 0.14101,0.4296 0.1374,2.41535 -0.004,2.46798 -0.0516,2.74147 -0.50922,2.95517 -0.23907,0.11161 -16.944942,3.96352 -17.190032,3.96352 -0.0859,0 -0.21615,-0.0855 -0.28935,-0.19002 z m 22.331792,-5.03226 c -0.14139,-0.0823 -0.14948,-0.74041 -0.14691,-11.9459 0.002,-9.19134 0.0262,-11.8876 0.10687,-11.987 0.0573,-0.0706 0.16187,-0.17283 0.23241,-0.22732 0.20008,-0.15458 11.32642,-2.68831 12.13167,-2.76268 1.98201,-0.18303 3.7856,0.43536 5.0986,1.74816 0.8033,0.80317 1.30224,1.70025 1.5912,2.86093 0.15518,0.62337 0.17359,0.89047 0.13553,1.96648 -0.0533,1.50786 -0.20352,2.09194 -0.91452,3.55706 -0.604,1.24462 -1.25797,2.14663 -2.30373,3.17759 l -0.78574,0.77459 2.3175,3.82586 c 1.27462,2.10422 2.33914,3.93407 2.36559,4.06633 0.10051,0.5025 -0.10022,0.58131 -3.42857,1.34619 -2.56458,0.58936 -3.07006,0.68253 -3.25234,0.59947 -0.11871,-0.0541 -0.21583,-0.1218 -0.21583,-0.15048 0,-0.11358 -4.09837,-6.80252 -4.16303,-6.79448 -0.0381,0.005 -0.65588,0.13939 -1.37295,0.29925 l -1.30378,0.29064 -8e-5,3.91567 -9e-5,3.91566 -0.20935,0.19402 c -0.16617,0.15401 -0.76123,0.32096 -2.8856,0.8096 -1.47192,0.33858 -2.71471,0.61376 -2.76174,0.61155 -0.047,-0.002 -0.15282,-0.0432 -0.23511,-0.0912 z m 7.93003,-14.95634 c 2.41156,-0.54372 2.91971,-0.74679 3.61911,-1.44617 1.57391,-1.57393 1.44813,-4.10799 -0.24189,-4.873 -0.64154,-0.2904 -1.35322,-0.22454 -3.93296,0.36398 l -1.23974,0.28283 -0.0224,3.05646 c -0.0212,2.88577 -0.0141,3.05384 0.12825,3.00967 0.0829,-0.0257 0.84325,-0.20292 1.68968,-0.39377 z m 15.13818,9.55772 c -0.11887,-0.16972 -0.13309,-1.42913 -0.13309,-11.78612 0,-8.04838 0.0281,-11.67674 0.0919,-11.8597 0.0506,-0.14499 0.17948,-0.321 0.28651,-0.39112 0.20102,-0.13172 16.51591,-3.92167 16.88725,-3.92291 0.11471,0 0.27823,0.0853 0.36337,0.19046 0.14058,0.17361 0.15476,0.39626 0.15447,2.42603 0,2.06212 -0.0131,2.25594 -0.16642,2.5073 -0.0914,0.14983 -0.24423,0.31423 -0.33973,0.36533 -0.0955,0.0511 -2.51183,0.62989 -5.36964,1.2862 -2.85781,0.65631 -5.28259,1.21404 -5.38839,1.23941 l -0.19238,0.0461 v 2.05036 c 0,1.12769 0.0162,2.05034 0.0361,2.05034 0.0199,0 1.86963,-0.42321 4.11062,-0.94048 2.24098,-0.51727 4.20484,-0.9405 4.3641,-0.9405 0.19879,0 0.31733,0.0519 0.37809,0.16539 0.0533,0.0997 0.0885,0.91754 0.0885,2.06016 0,2.05593 -0.0417,2.26608 -0.48965,2.47019 -0.17113,0.078 -8.27235,1.97319 -8.43452,1.97319 -0.0293,0 -0.0533,0.96186 -0.0533,2.13748 0,1.17561 0.0141,2.13748 0.0313,2.13748 0.0171,0 2.53989,-0.57712 5.60602,-1.28249 3.06614,-0.70537 5.64316,-1.28249 5.72671,-1.28249 0.0835,0 0.21558,0.0703 0.29341,0.15636 0.12438,0.13745 0.141,0.4296 0.13739,2.41535 -0.004,2.46798 -0.0516,2.74148 -0.50922,2.95516 -0.23907,0.11163 -16.94494,3.96353 -17.19003,3.96353 -0.0859,0 -0.21615,-0.0855 -0.28935,-0.19002 z m 22.26767,-5.11092 c -0.16933,-0.16934 -0.171,-0.285 -0.171,-11.83606 0,-7.20646 0.0312,-11.74717 0.0817,-11.8799 0.045,-0.11816 0.17546,-0.27629 0.29008,-0.35139 0.23197,-0.15199 5.5873,-1.41138 6.00165,-1.41138 0.14455,0 0.32459,0.0481 0.40009,0.10688 0.0755,0.0588 1.38258,1.81899 2.90464,3.91158 1.52207,2.09259 3.40101,4.67024 4.17541,5.72812 l 1.40803,1.92341 0.0427,-6.67242 c 0.0471,-7.34928 0.0181,-6.98337 0.57049,-7.20643 0.13296,-0.0537 1.33458,-0.34742 2.67027,-0.65273 2.11364,-0.48312 2.45729,-0.54129 2.65046,-0.44871 l 0.22196,0.10639 0.0235,11.75497 c 0.0129,6.46524 0.004,11.83682 -0.0204,11.93686 -0.0241,0.10003 -0.13676,0.24279 -0.25037,0.31723 -0.11362,0.0745 -1.47813,0.42859 -3.03224,0.78698 -2.78459,0.64216 -2.82869,0.64934 -3.03384,0.495 -0.11449,-0.0861 -0.76074,-0.94253 -1.4361,-1.90309 -6.20358,-8.82341 -7.44181,-10.56912 -7.51426,-10.59389 -0.0536,-0.0184 -0.0833,2.55511 -0.0833,7.23115 v 7.25963 l -0.19809,0.1861 c -0.15301,0.14375 -0.78633,0.32224 -2.78308,0.7844 -1.42174,0.32906 -2.62151,0.5983 -2.66613,0.5983 -0.0446,0 -0.15809,-0.077 -0.25214,-0.171 z m 32.01437,-7.30327 c -0.16203,-0.11848 -0.16698,-0.33866 -0.20872,-9.30149 l -0.0427,-9.18014 -2.96657,0.67888 c -2.85642,0.65368 -2.97465,0.67358 -3.18484,0.53587 l -0.21827,-0.14303 v -2.41876 -2.41875 l 0.24918,-0.23874 c 0.23173,-0.22201 0.8834,-0.38465 9.29803,-2.32042 5.17702,-1.19098 9.13211,-2.06093 9.24346,-2.03316 0.10705,0.0267 0.23209,0.11854 0.27787,0.20409 0.048,0.0896 0.0831,1.109 0.0829,2.40551 0,2.0969 -0.0119,2.26899 -0.1708,2.52959 -0.0938,0.15379 -0.25714,0.31733 -0.36305,0.36342 -0.16462,0.0716 -5.68716,1.36619 -5.82816,1.36619 -0.0275,0 -0.0501,4.08212 -0.0501,9.07136 0,10.02133 0.0299,9.47855 -0.53888,9.7718 -0.26174,0.13494 -4.95797,1.24913 -5.265,1.24913 -0.0816,0 -0.22305,-0.0546 -0.31434,-0.12135 z M 67.440748,130.13318 c -2.36711,-0.24744 -4.34909,-1.21487 -5.9514,-2.90497 -4.22383,-4.45528 -3.18655,-12.60538 2.3008,-18.07795 4.19321,-4.18191 9.87311,-5.7705 14.29821,-3.99901 0.54614,0.21864 0.80006,0.4488 0.80006,0.72524 0,0.16645 -2.82548,4.88491 -3.10657,5.18785 -0.21789,0.23484 -0.35346,0.22087 -1.21113,-0.12477 -0.56228,-0.2266 -0.67355,-0.24104 -1.83823,-0.23863 -1.16141,0.002 -1.29106,0.0197 -2.05198,0.27396 -1.41577,0.47304 -2.6872,1.34889 -3.59723,2.47806 -1.31641,1.6334 -1.96219,3.38316 -1.95873,5.30721 0.002,1.08135 0.17351,1.86397 0.59696,2.7231 1.56547,3.17617 5.85168,3.36911 9.21803,0.41496 0.32367,-0.28405 0.61942,-0.47373 0.73863,-0.47373 0.15403,0 0.50554,0.37069 1.56068,1.64585 1.90159,2.29812 1.7971,2.13794 1.62712,2.49441 -0.17629,0.36966 -1.20887,1.25645 -2.36417,2.03035 -2.16321,1.44908 -4.52001,2.31751 -6.9244,2.55151 -0.93841,0.0913 -1.14683,0.09 -2.13665,-0.0134 z m 15.77148,-3.5421 c -0.12084,-0.12084 -0.13432,-1.31432 -0.13404,-11.86299 0,-11.32388 0.006,-11.73773 0.16089,-11.99196 0.0883,-0.14482 0.27092,-0.30565 0.40579,-0.35742 0.13489,-0.0518 1.37476,-0.3513 2.75527,-0.66565 l 2.51001,-0.57153 0.22596,0.16867 0.22595,0.16867 0.0222,4.03063 c 0.0122,2.21685 0.0366,4.03062 0.0542,4.03062 0.0522,0 7.86165,-1.79749 8.02464,-1.84702 0.1397,-0.0425 0.14962,-0.30905 0.14962,-4.01967 0,-4.3403 7.2e-4,-4.34526 0.49306,-4.59364 0.12853,-0.0648 1.384937,-0.37936 2.792012,-0.69899 2.34954,-0.53372 2.57633,-0.57105 2.77872,-0.45744 l 0.22039,0.12369 0.0222,11.7101 c 0.0165,8.68005 -0.004,11.77198 -0.0762,11.94925 -0.0541,0.13153 -0.20724,0.29544 -0.34026,0.36422 -0.18834,0.0974 -3.632665,0.93106 -5.264562,1.27422 -0.21152,0.0445 -0.31171,0.0179 -0.44887,-0.1193 -0.17421,-0.17421 -0.17656,-0.24022 -0.17656,-4.96451 0,-2.63337 -0.0288,-4.78936 -0.0641,-4.79108 -0.0353,-10e-4 -1.88193,0.41187 -4.1037,0.91911 l -4.03958,0.92225 v 4.77082 c 0,5.37013 0.0242,5.15664 -0.61829,5.39565 -0.36762,0.13675 -5.10834,1.24766 -5.32432,1.24766 -0.0637,0 -0.17632,-0.0604 -0.25022,-0.13436 z m 26.332452,-6.1261 c -0.11887,-0.16972 -0.13309,-1.43386 -0.13309,-11.83605 0,-7.19438 0.0312,-11.72816 0.0817,-11.86088 0.0449,-0.11816 0.17601,-0.27665 0.29129,-0.35219 0.1153,-0.0755 1.36753,-0.4036 2.78276,-0.72902 2.62736,-0.60413 2.81457,-0.62349 3.06873,-0.31725 0.0811,0.0978 0.0993,2.73673 0.082,11.90069 l -0.0222,11.77507 -0.21839,0.18784 c -0.16626,0.14301 -0.86024,0.33549 -2.90697,0.80627 -1.47872,0.34013 -2.73449,0.61778 -2.7906,0.61699 -0.0561,-7.2e-4 -0.16192,-0.087 -0.23512,-0.19147 z m 11.72991,-2.5528 c -0.14139,-0.0823 -0.14947,-0.74039 -0.14691,-11.94589 0.002,-9.19134 0.0262,-11.8876 0.10687,-11.987 0.0573,-0.0705 0.16187,-0.17284 0.23241,-0.22732 0.20008,-0.15458 11.32642,-2.68831 12.13167,-2.76267 1.98201,-0.18304 3.7856,0.43535 5.09861,1.74816 0.80329,0.80316 1.30223,1.70024 1.59119,2.86092 0.15519,0.62337 0.17359,0.89047 0.13553,1.96648 -0.0533,1.50786 -0.20352,2.09194 -0.91451,3.55706 -0.60401,1.24461 -1.25797,2.14663 -2.30374,3.17759 l -0.78574,0.77458 2.3175,3.82587 c 1.27462,2.10422 2.33914,3.93407 2.36559,4.06633 0.10051,0.5025 -0.10022,0.58132 -3.42856,1.34619 -2.56459,0.58936 -3.07007,0.68253 -3.25235,0.59947 -0.11871,-0.0541 -0.21582,-0.1218 -0.21582,-0.15048 0,-0.11358 -4.09837,-6.80251 -4.16303,-6.79448 -0.0381,0.005 -0.65589,0.13939 -1.37296,0.29925 l -1.30378,0.29065 -8e-5,3.91566 -9e-5,3.91567 -0.20935,0.19401 c -0.16617,0.15401 -0.76123,0.32097 -2.88559,0.8096 -1.47193,0.33858 -2.71471,0.61377 -2.76174,0.61155 -0.047,-0.002 -0.15283,-0.0432 -0.23512,-0.0912 z m 7.93004,-14.95633 c 2.41155,-0.54372 2.9197,-0.74678 3.6191,-1.44618 1.57391,-1.57392 1.44813,-4.10798 -0.24189,-4.87299 -0.64154,-0.29041 -1.35321,-0.22454 -3.93296,0.36398 l -1.23974,0.28283 -0.0224,3.05646 c -0.0212,2.88578 -0.014,3.05384 0.12825,3.00967 0.0829,-0.0257 0.84325,-0.20292 1.68969,-0.39377 z m 21.93051,7.74206 c -7.11293,-1.17249 -10.13445,-8.76903 -6.46278,-16.24837 1.74764,-3.56001 4.4923,-6.29647 8.01421,-7.99025 5.82168,-2.79982 11.88802,-1.22266 14.38528,3.73996 0.75335,1.49708 1.07761,2.96977 1.07761,4.89423 0,1.56339 -0.20909,2.87167 -0.68866,4.30908 -1.86888,5.60146 -6.66426,9.98869 -12.20656,11.16758 -1.08741,0.23131 -3.11037,0.29405 -4.1191,0.12777 z m 4.72893,-6.29449 c 1.31893,-0.33675 2.36958,-0.94172 3.46693,-1.9963 0.79574,-0.7647 1.28135,-1.44218 1.76384,-2.46072 0.55202,-1.16533 0.75822,-2.08894 0.75952,-3.40213 10e-4,-1.73332 -0.44217,-2.96612 -1.42989,-3.97112 -1.12981,-1.14957 -2.78759,-1.57548 -4.65461,-1.19581 -1.42346,0.28944 -2.63072,0.95614 -3.78274,2.08896 -0.91411,0.89887 -1.20197,1.28618 -1.70453,2.29329 -0.55798,1.11822 -0.7848,2.01927 -0.83244,3.3069 -0.0655,1.77261 0.32197,3.04962 1.23346,4.0644 1.23323,1.37297 3.0445,1.81789 5.18046,1.27253 z"
       id="path872" />
  </g>
</svg>
